<svg width="197" height="17" viewBox="0 0 197 17" fill="none" xmlns="http://www.w3.org/2000/svg">
<path d="M3.71875 7.72559H5.50293C7.33105 7.72559 8.4209 8.58691 8.4209 10.0371C8.4209 11.4346 7.26074 12.3926 5.56445 12.3926C3.82422 12.3926 2.61133 11.5312 2.4707 10.1953H0.941406C1.05566 12.3574 2.91016 13.7988 5.58203 13.7988C8.08691 13.7988 10.0469 12.1729 10.0469 10.0811C10.0469 8.3584 9.00977 7.14551 7.32227 6.92578V6.85547C8.71973 6.5127 9.67773 5.31738 9.67773 3.91113C9.67773 1.93359 7.98145 0.518555 5.6084 0.518555C3.08594 0.518555 1.44238 1.87207 1.28418 4.06934H2.82227C2.9541 2.7334 3.97363 1.9248 5.54688 1.9248C7.10254 1.9248 8.06934 2.74219 8.06934 4.05176C8.06934 5.37891 6.97949 6.31934 5.43262 6.31934H3.71875V7.72559ZM14.459 13.6582C15.6895 13.6582 16.8496 12.9727 17.3945 11.9268H17.4297V13.5H18.8799V7.18066C18.8799 5.36133 17.5264 4.20117 15.3818 4.20117C13.2197 4.20117 11.8662 5.41406 11.7607 6.99609H13.2373C13.4307 6.09961 14.1689 5.5459 15.3467 5.5459C16.6123 5.5459 17.3506 6.21387 17.3506 7.33008V8.09473L14.7314 8.24414C12.6221 8.36719 11.418 9.35156 11.418 10.916C11.418 12.5596 12.6396 13.6582 14.459 13.6582ZM14.8018 12.3574C13.7031 12.3574 12.9736 11.7861 12.9736 10.916C12.9736 10.0547 13.6768 9.50977 14.9072 9.43066L17.3506 9.28125V10.0283C17.3506 11.3467 16.2432 12.3574 14.8018 12.3574ZM26.9043 13.5H28.4424V4.35938H20.9893V13.5H22.5186V5.61621H26.9043V13.5ZM32.0986 13.5L36.6514 6.70605H36.7217V13.5H38.251V4.35938H36.7393L32.1865 11.1533H32.1162V4.35938H30.5869V13.5H32.0986ZM47.998 7.35645C47.8047 5.71289 46.4424 4.20117 44.1572 4.20117C41.6348 4.20117 39.9561 6.04688 39.9561 8.92969C39.9561 11.874 41.6436 13.6582 44.1748 13.6582C46.249 13.6582 47.7783 12.375 48.0156 10.5557H46.5127C46.249 11.6543 45.4316 12.3135 44.1836 12.3135C42.6016 12.3135 41.5117 11.0566 41.5117 8.92969C41.5117 6.85547 42.584 5.5459 44.166 5.5459C45.5107 5.5459 46.2842 6.36328 46.5039 7.35645H47.998ZM52.2695 13.6582C53.5 13.6582 54.6602 12.9727 55.2051 11.9268H55.2402V13.5H56.6904V7.18066C56.6904 5.36133 55.3369 4.20117 53.1924 4.20117C51.0303 4.20117 49.6768 5.41406 49.5713 6.99609H51.0479C51.2412 6.09961 51.9795 5.5459 53.1572 5.5459C54.4229 5.5459 55.1611 6.21387 55.1611 7.33008V8.09473L52.542 8.24414C50.4326 8.36719 49.2285 9.35156 49.2285 10.916C49.2285 12.5596 50.4502 13.6582 52.2695 13.6582ZM52.6123 12.3574C51.5137 12.3574 50.7842 11.7861 50.7842 10.916C50.7842 10.0547 51.4873 9.50977 52.7178 9.43066L55.1611 9.28125V10.0283C55.1611 11.3467 54.0537 12.3574 52.6123 12.3574ZM65.3125 4.35938H57.8945V5.61621H60.8389V13.5H62.3682V5.61621H65.3125V4.35938ZM66.7275 13.5H69.9707C72.0625 13.5 73.4072 12.2959 73.4072 10.3887C73.4072 8.48145 72.0625 7.27734 69.9707 7.27734H68.2568V4.35938H66.7275V13.5ZM69.9443 8.53418C71.1221 8.53418 71.8955 9.26367 71.8955 10.3887C71.8955 11.5049 71.1309 12.2432 69.9443 12.2432H68.2568V8.53418H69.9443ZM82.6797 7.35645C82.4863 5.71289 81.124 4.20117 78.8389 4.20117C76.3164 4.20117 74.6377 6.04688 74.6377 8.92969C74.6377 11.874 76.3252 13.6582 78.8564 13.6582C80.9307 13.6582 82.46 12.375 82.6973 10.5557H81.1943C80.9307 11.6543 80.1133 12.3135 78.8652 12.3135C77.2832 12.3135 76.1934 11.0566 76.1934 8.92969C76.1934 6.85547 77.2656 5.5459 78.8477 5.5459C80.1924 5.5459 80.9658 6.36328 81.1855 7.35645H82.6797ZM89.2891 13.5H90.8184V4.35938H87.5488C85.4482 4.35938 84.0947 5.51074 84.0947 7.3916C84.0947 8.64844 84.877 9.59766 86.1689 9.9668L83.6201 13.5H85.3867L87.707 10.248H89.2891V13.5ZM87.5576 8.99121C86.3799 8.99121 85.6152 8.31445 85.6152 7.36523C85.6152 6.2666 86.3711 5.61621 87.5576 5.61621H89.2891V8.99121H87.5576ZM102.666 13.5H104.195V4.35938H102.666V8.12988H98.1924V4.35938H96.6631V13.5H98.1924V9.38672H102.666V13.5ZM109.029 13.6582C110.26 13.6582 111.42 12.9727 111.965 11.9268H112V13.5H113.45V7.18066C113.45 5.36133 112.097 4.20117 109.952 4.20117C107.79 4.20117 106.437 5.41406 106.331 6.99609H107.808C108.001 6.09961 108.739 5.5459 109.917 5.5459C111.183 5.5459 111.921 6.21387 111.921 7.33008V8.09473L109.302 8.24414C107.192 8.36719 105.988 9.35156 105.988 10.916C105.988 12.5596 107.21 13.6582 109.029 13.6582ZM109.372 12.3574C108.273 12.3574 107.544 11.7861 107.544 10.916C107.544 10.0547 108.247 9.50977 109.478 9.43066L111.921 9.28125V10.0283C111.921 11.3467 110.813 12.3574 109.372 12.3574ZM125.166 13.5H126.704V4.35938H119.251V13.5H120.78V5.61621H125.166V13.5ZM133.296 4.20117C131.969 4.20117 130.905 4.87793 130.343 5.90625H130.308V4.35938H128.857V16.5498H130.387V12.0146H130.422C130.967 13.0166 132.021 13.6582 133.331 13.6582C135.634 13.6582 137.207 11.7949 137.207 8.92969C137.207 6.06445 135.625 4.20117 133.296 4.20117ZM132.997 12.3135C131.433 12.3135 130.378 10.9688 130.378 8.92969C130.378 6.89941 131.433 5.5459 132.997 5.5459C134.623 5.5459 135.643 6.86426 135.643 8.92969C135.643 11.0039 134.623 12.3135 132.997 12.3135ZM142.718 13.6582C145.24 13.6582 146.945 11.8389 146.945 8.92969C146.945 6.01172 145.24 4.20117 142.718 4.20117C140.187 4.20117 138.481 6.01172 138.481 8.92969C138.481 11.8389 140.187 13.6582 142.718 13.6582ZM142.718 12.3135C141.101 12.3135 140.037 11.083 140.037 8.92969C140.037 6.77637 141.101 5.5459 142.718 5.5459C144.335 5.5459 145.39 6.77637 145.39 8.92969C145.39 11.083 144.335 12.3135 142.718 12.3135ZM156.262 7.35645C156.068 5.71289 154.706 4.20117 152.421 4.20117C149.898 4.20117 148.22 6.04688 148.22 8.92969C148.22 11.874 149.907 13.6582 152.438 13.6582C154.513 13.6582 156.042 12.375 156.279 10.5557H154.776C154.513 11.6543 153.695 12.3135 152.447 12.3135C150.865 12.3135 149.775 11.0566 149.775 8.92969C149.775 6.85547 150.848 5.5459 152.43 5.5459C153.774 5.5459 154.548 6.36328 154.768 7.35645H156.262ZM159.364 13.5V7.01367H159.426L162.379 13.2363H163.548L166.501 7.01367H166.562V13.5H168.083V4.35938H166.299L163.029 11.4785H162.959L159.707 4.35938H157.853V13.5H159.364ZM174.024 13.6582C176.547 13.6582 178.252 11.8389 178.252 8.92969C178.252 6.01172 176.547 4.20117 174.024 4.20117C171.493 4.20117 169.788 6.01172 169.788 8.92969C169.788 11.8389 171.493 13.6582 174.024 13.6582ZM174.024 12.3135C172.407 12.3135 171.344 11.083 171.344 8.92969C171.344 6.77637 172.407 5.5459 174.024 5.5459C175.642 5.5459 176.696 6.77637 176.696 8.92969C176.696 11.083 175.642 12.3135 174.024 12.3135ZM186.303 4.35938H178.885V5.61621H181.829V13.5H183.358V5.61621H186.303V4.35938ZM192.165 4.20117C190.838 4.20117 189.774 4.87793 189.212 5.90625H189.177V4.35938H187.727V16.5498H189.256V12.0146H189.291C189.836 13.0166 190.891 13.6582 192.2 13.6582C194.503 13.6582 196.076 11.7949 196.076 8.92969C196.076 6.06445 194.494 4.20117 192.165 4.20117ZM191.866 12.3135C190.302 12.3135 189.247 10.9688 189.247 8.92969C189.247 6.89941 190.302 5.5459 191.866 5.5459C193.492 5.5459 194.512 6.86426 194.512 8.92969C194.512 11.0039 193.492 12.3135 191.866 12.3135Z" fill="white"/>
</svg>
