<svg width="226" height="38" viewBox="0 0 226 38" fill="none" xmlns="http://www.w3.org/2000/svg">
<path d="M17.4455 0L30.3446 32.8776C30.8732 34.2017 31.4724 35.0903 32.142 35.5433C32.8116 35.9615 33.4284 36.188 33.9923 36.2228V37.2682C33.2874 37.1985 32.4239 37.1637 31.4019 37.1637C30.3798 37.1288 29.3578 37.1114 28.3357 37.1114C26.9612 37.1114 25.6748 37.1288 24.4765 37.1637C23.2783 37.1637 22.3091 37.1985 21.569 37.2682V36.2228C23.3664 36.1531 24.5118 35.8569 25.0052 35.3343C25.4986 34.7767 25.3929 33.6094 24.688 31.8322L14.8551 5.8542L15.7009 5.17469L6.50241 28.8006C5.93851 30.1944 5.6037 31.3792 5.49797 32.3549C5.39224 33.2957 5.48035 34.0449 5.7623 34.6025C6.07949 35.16 6.59052 35.5608 7.29539 35.8047C8.0355 36.0486 8.95183 36.188 10.0444 36.2228V37.2682C9.05756 37.1985 8.01787 37.1637 6.92533 37.1637C5.86803 37.1288 4.88121 37.1114 3.96488 37.1114C3.0838 37.1114 2.32606 37.1288 1.69168 37.1637C1.09255 37.1637 0.528651 37.1985 0 37.2682V36.2228C0.704868 36.0486 1.42736 35.6479 2.16747 35.0206C2.90758 34.3586 3.57721 33.2435 4.17634 31.6754L16.5996 0C16.7406 0 16.8816 0 17.0226 0C17.1635 0 17.3045 0 17.4455 0ZM23.895 22.2146V23.26H8.14123L8.66988 22.2146H23.895Z" fill="white"/>
<path d="M69.9975 0.261351V1.30674C69.3279 1.44613 68.6054 1.84686 67.8301 2.50894C67.09 3.17102 66.4203 4.28611 65.8212 5.8542L53.3979 37.5296C53.3274 37.5296 53.2569 37.5296 53.1864 37.5296C53.1159 37.5296 53.0455 37.5296 52.975 37.5296C52.9045 37.5296 52.834 37.5296 52.7635 37.5296C52.693 37.5296 52.6225 37.5296 52.552 37.5296L39.653 4.652C39.1243 3.32783 38.5252 2.45667 37.8555 2.03851C37.1859 1.58551 36.5692 1.34159 36.0053 1.30674V0.261351C36.7101 0.296197 37.5736 0.331041 38.5957 0.365887C39.653 0.400733 40.675 0.418156 41.6618 0.418156C43.0363 0.418156 44.3227 0.400733 45.521 0.365887C46.7193 0.331041 47.6885 0.296197 48.4286 0.261351V1.30674C47.2303 1.34159 46.314 1.48097 45.6796 1.7249C45.0804 1.96882 44.7456 2.4044 44.6751 3.03164C44.6399 3.62403 44.8514 4.51261 45.3095 5.69739L55.1424 31.4663L54.2966 32.3549L63.4951 8.72902C64.2352 6.84732 64.5877 5.38377 64.5524 4.33838C64.5172 3.25814 64.1119 2.49152 63.3365 2.03851C62.5612 1.58551 61.4334 1.34159 59.9532 1.30674V0.261351C60.9752 0.296197 62.0149 0.331041 63.0722 0.365887C64.1295 0.400733 65.1163 0.418156 66.0326 0.418156C66.949 0.418156 67.7067 0.400733 68.3058 0.365887C68.905 0.331041 69.4689 0.296197 69.9975 0.261351Z" fill="white"/>
<path d="M103.508 0.261351C103.367 1.48097 103.261 2.66575 103.191 3.81568C103.155 4.96561 103.138 5.83677 103.138 6.42916C103.138 7.0564 103.155 7.66621 103.191 8.2586C103.226 8.81614 103.261 9.28657 103.296 9.66988H102.08C101.869 7.61394 101.569 5.99358 101.182 4.8088C100.794 3.58918 100.124 2.73544 99.1729 2.24759C98.2565 1.7249 96.8644 1.46355 94.9965 1.46355H90.6087C89.4104 1.46355 88.4941 1.56809 87.8597 1.77717C87.2606 1.9514 86.8553 2.35213 86.6438 2.97937C86.4324 3.57176 86.3267 4.51261 86.3267 5.80193V31.7276C86.3267 32.9821 86.4324 33.923 86.6438 34.5502C86.8553 35.1774 87.2606 35.5956 87.8597 35.8047C88.4941 35.9789 89.4104 36.066 90.6087 36.066H94.4679C96.6882 36.066 98.3623 35.7698 99.4901 35.1774C100.653 34.5851 101.481 33.6268 101.975 32.3026C102.503 30.9436 102.891 29.1142 103.138 26.8143H104.354C104.248 27.7552 104.195 29.0096 104.195 30.5777C104.195 31.2398 104.213 32.1981 104.248 33.4525C104.318 34.6722 104.424 35.9441 104.565 37.2682C102.768 37.1985 100.741 37.1637 98.4856 37.1637C96.23 37.1288 94.2212 37.1114 92.459 37.1114C91.6836 37.1114 90.6792 37.1114 89.4457 37.1114C88.2474 37.1114 86.9434 37.1288 85.5337 37.1637C84.1239 37.1637 82.6966 37.1811 81.2516 37.216C79.8066 37.216 78.4321 37.2334 77.1281 37.2682V36.2228C78.3264 36.1531 79.2251 36.0138 79.8242 35.8047C80.4586 35.5956 80.8815 35.1774 81.093 34.5502C81.3045 33.923 81.4102 32.9821 81.4102 31.7276V5.80193C81.4102 4.51261 81.3045 3.57176 81.093 2.97937C80.8815 2.35213 80.4586 1.93398 79.8242 1.7249C79.2251 1.48097 78.3264 1.34159 77.1281 1.30674V0.261351C78.4321 0.296197 79.8066 0.331041 81.2516 0.365887C82.6966 0.365887 84.1239 0.38331 85.5337 0.418156C86.9434 0.418156 88.2474 0.418156 89.4457 0.418156C90.6792 0.418156 91.6836 0.418156 92.459 0.418156C94.0802 0.418156 95.9129 0.418156 97.957 0.418156C100.036 0.38331 101.887 0.331043 103.508 0.261351ZM94.415 18.1376C94.415 18.1376 94.415 18.3118 94.415 18.6602C94.415 19.0087 94.415 19.1829 94.415 19.1829H84.7407C84.7407 19.1829 84.7407 19.0087 84.7407 18.6602C84.7407 18.3118 84.7407 18.1376 84.7407 18.1376H94.415ZM95.9481 11.238C95.8071 13.2242 95.7366 14.74 95.7366 15.7854C95.7719 16.8308 95.7895 17.7891 95.7895 18.6602C95.7895 19.5314 95.8071 20.4897 95.8424 21.5351C95.8776 22.5805 95.9657 24.0963 96.1067 26.0825H94.8908C94.7498 24.9674 94.5736 23.8872 94.3622 22.8418C94.1859 21.7616 93.763 20.8904 93.0934 20.2283C92.459 19.5314 91.3665 19.1829 89.8158 19.1829V18.1376C90.9788 18.1376 91.8599 17.9111 92.459 17.458C93.0934 16.9702 93.5516 16.3604 93.8335 15.6286C94.1154 14.8968 94.3093 14.1476 94.415 13.381C94.5207 12.5796 94.6265 11.8652 94.7322 11.238H95.9481Z" fill="white"/>
<path d="M147.829 0.261351V1.30674C146.63 1.34159 145.714 1.51582 145.08 1.82944C144.48 2.14305 144.075 2.64833 143.864 3.34525C143.652 4.04218 143.547 5.03531 143.547 6.32462V37.5296C143.335 37.5296 143.124 37.5296 142.912 37.5296C142.736 37.5296 142.542 37.5296 142.331 37.5296L120.127 3.6066V31.205C120.127 32.4594 120.233 33.4525 120.444 34.1843C120.691 34.8812 121.149 35.3865 121.819 35.7001C122.524 35.9789 123.564 36.1531 124.938 36.2228V37.2682C124.304 37.1985 123.475 37.1637 122.453 37.1637C121.431 37.1288 120.462 37.1114 119.546 37.1114C118.665 37.1114 117.766 37.1288 116.85 37.1637C115.969 37.1637 115.228 37.1985 114.629 37.2682V36.2228C115.828 36.1531 116.726 35.9789 117.325 35.7001C117.96 35.3865 118.383 34.8812 118.594 34.1843C118.806 33.4525 118.911 32.4594 118.911 31.205V5.80193C118.911 4.51261 118.806 3.57176 118.594 2.97937C118.383 2.35213 117.96 1.93398 117.325 1.7249C116.726 1.48097 115.828 1.34159 114.629 1.30674V0.261351C115.228 0.296197 115.969 0.331041 116.85 0.365887C117.766 0.400733 118.665 0.418156 119.546 0.418156C120.321 0.418156 121.061 0.400733 121.766 0.365887C122.471 0.331041 123.105 0.296197 123.669 0.261351L142.331 28.696V6.32462C142.331 5.03531 142.207 4.04218 141.961 3.34525C141.749 2.64833 141.291 2.14305 140.586 1.82944C139.916 1.51582 138.894 1.34159 137.52 1.30674V0.261351C138.154 0.296197 138.983 0.331041 140.005 0.365887C141.062 0.400733 142.031 0.418156 142.912 0.418156C143.828 0.418156 144.727 0.400733 145.608 0.365887C146.525 0.331041 147.265 0.296197 147.829 0.261351Z" fill="white"/>
<path d="M189.648 0.261351V1.30674C188.45 1.34159 187.533 1.51582 186.899 1.82944C186.3 2.14305 185.894 2.64833 185.683 3.34525C185.471 4.04218 185.366 5.03531 185.366 6.32462V22.0578C185.366 24.497 185.207 26.6227 184.89 28.4347C184.573 30.2467 184.009 31.8148 183.198 33.1389C182.317 34.6025 181.031 35.7873 179.339 36.6933C177.647 37.5644 175.709 38 173.524 38C171.832 38 170.211 37.7909 168.66 37.3728C167.145 36.9895 165.806 36.2577 164.643 35.1774C163.621 34.2017 162.81 33.1738 162.211 32.0935C161.647 31.0133 161.259 29.6891 161.048 28.121C160.836 26.553 160.731 24.5841 160.731 22.2146V5.80193C160.731 4.51261 160.625 3.57176 160.413 2.97937C160.202 2.35213 159.779 1.93398 159.145 1.7249C158.545 1.48097 157.647 1.34159 156.448 1.30674V0.261351C157.189 0.296197 158.158 0.331041 159.356 0.365887C160.554 0.400733 161.841 0.418156 163.215 0.418156C164.449 0.418156 165.665 0.400733 166.863 0.365887C168.096 0.331041 169.118 0.296197 169.929 0.261351V1.30674C168.731 1.34159 167.814 1.48097 167.18 1.7249C166.581 1.93398 166.176 2.35213 165.964 2.97937C165.753 3.57176 165.647 4.51261 165.647 5.80193V23.1032C165.647 24.8803 165.735 26.5704 165.911 28.1733C166.088 29.7414 166.44 31.1353 166.969 32.3549C167.533 33.5397 168.378 34.4805 169.506 35.1774C170.634 35.8395 172.132 36.1706 174 36.1706C176.678 36.1706 178.74 35.5956 180.185 34.4457C181.665 33.2609 182.687 31.6405 183.251 29.5846C183.85 27.5287 184.15 25.2114 184.15 22.6327V6.32462C184.15 5.03531 183.991 4.04218 183.674 3.34525C183.392 2.64833 182.899 2.14305 182.194 1.82944C181.489 1.51582 180.537 1.34159 179.339 1.30674V0.261351C179.973 0.296197 180.802 0.331041 181.824 0.365887C182.881 0.400733 183.85 0.418156 184.731 0.418156C185.648 0.418156 186.546 0.400733 187.427 0.365887C188.344 0.331041 189.084 0.296197 189.648 0.261351Z" fill="white"/>
<path d="M224.943 0.261351C224.802 1.48097 224.696 2.66575 224.625 3.81568C224.59 4.96561 224.573 5.83677 224.573 6.42916C224.573 7.0564 224.59 7.66621 224.625 8.2586C224.661 8.81614 224.696 9.28657 224.731 9.66988H223.515C223.304 7.61394 223.004 5.99358 222.617 4.8088C222.229 3.58918 221.559 2.73544 220.608 2.24759C219.691 1.7249 218.299 1.46355 216.431 1.46355H212.044C210.845 1.46355 209.929 1.56809 209.295 1.77717C208.695 1.9514 208.29 2.35213 208.079 2.97937C207.867 3.57176 207.762 4.51261 207.762 5.80193V31.7276C207.762 32.9821 207.867 33.923 208.079 34.5502C208.29 35.1774 208.695 35.5956 209.295 35.8047C209.929 35.9789 210.845 36.066 212.044 36.066H215.903C218.123 36.066 219.797 35.7698 220.925 35.1774C222.088 34.5851 222.916 33.6268 223.41 32.3026C223.938 30.9436 224.326 29.1142 224.573 26.8143H225.789C225.683 27.7552 225.63 29.0096 225.63 30.5777C225.63 31.2398 225.648 32.1981 225.683 33.4525C225.753 34.6722 225.859 35.9441 226 37.2682C224.203 37.1985 222.176 37.1637 219.92 37.1637C217.665 37.1288 215.656 37.1114 213.894 37.1114C213.119 37.1114 212.114 37.1114 210.881 37.1114C209.682 37.1114 208.378 37.1288 206.969 37.1637C205.559 37.1637 204.131 37.1811 202.686 37.216C201.241 37.216 199.867 37.2334 198.563 37.2682V36.2228C199.761 36.1531 200.66 36.0138 201.259 35.8047C201.893 35.5956 202.316 35.1774 202.528 34.5502C202.739 33.923 202.845 32.9821 202.845 31.7276V5.80193C202.845 4.51261 202.739 3.57176 202.528 2.97937C202.316 2.35213 201.893 1.93398 201.259 1.7249C200.66 1.48097 199.761 1.34159 198.563 1.30674V0.261351C199.867 0.296197 201.241 0.331041 202.686 0.365887C204.131 0.365887 205.559 0.38331 206.969 0.418156C208.378 0.418156 209.682 0.418156 210.881 0.418156C212.114 0.418156 213.119 0.418156 213.894 0.418156C215.515 0.418156 217.348 0.418156 219.392 0.418156C221.471 0.38331 223.321 0.331043 224.943 0.261351ZM215.85 18.1376C215.85 18.1376 215.85 18.3118 215.85 18.6602C215.85 19.0087 215.85 19.1829 215.85 19.1829H206.176C206.176 19.1829 206.176 19.0087 206.176 18.6602C206.176 18.3118 206.176 18.1376 206.176 18.1376H215.85ZM217.383 11.238C217.242 13.2242 217.172 14.74 217.172 15.7854C217.207 16.8308 217.224 17.7891 217.224 18.6602C217.224 19.5314 217.242 20.4897 217.277 21.5351C217.312 22.5805 217.401 24.0963 217.542 26.0825H216.326C216.185 24.9674 216.008 23.8872 215.797 22.8418C215.621 21.7616 215.198 20.8904 214.528 20.2283C213.894 19.5314 212.801 19.1829 211.251 19.1829V18.1376C212.414 18.1376 213.295 17.9111 213.894 17.458C214.528 16.9702 214.986 16.3604 215.268 15.6286C215.55 14.8968 215.744 14.1476 215.85 13.381C215.956 12.5796 216.061 11.8652 216.167 11.238H217.383Z" fill="white"/>
</svg>
