<svg width="128" height="22" viewBox="0 0 128 22" fill="none" xmlns="http://www.w3.org/2000/svg">
<path d="M9.88063 0L17.1863 19.0344C17.4857 19.801 17.8251 20.3155 18.2043 20.5777C18.5836 20.8198 18.9329 20.9509 19.2523 20.9711V21.5763C18.853 21.536 18.364 21.5158 17.7851 21.5158C17.2063 21.4956 16.6274 21.4856 16.0485 21.4856C15.2701 21.4856 14.5415 21.4956 13.8628 21.5158C13.1842 21.5158 12.6352 21.536 12.2161 21.5763V20.9711C13.2341 20.9308 13.8828 20.7593 14.1622 20.4567C14.4417 20.1339 14.3818 19.458 13.9826 18.4292L8.41351 3.38927L8.89257 2.99587L3.68278 16.674C3.36341 17.481 3.17378 18.1669 3.1139 18.7318C3.05401 19.2765 3.10391 19.7102 3.2636 20.033C3.44325 20.3558 3.73268 20.5878 4.1319 20.729C4.55108 20.8702 5.07006 20.9509 5.68885 20.9711V21.5763C5.12994 21.536 4.5411 21.5158 3.92231 21.5158C3.32348 21.4956 2.76458 21.4856 2.2456 21.4856C1.74658 21.4856 1.31742 21.4956 0.958122 21.5158C0.618787 21.5158 0.299413 21.536 0 21.5763V20.9711C0.399217 20.8702 0.808415 20.6382 1.22759 20.2751C1.64677 19.8918 2.02603 19.2462 2.36536 18.3384L9.40157 0C9.48141 0 9.56126 0 9.6411 0C9.72094 0 9.80079 0 9.88063 0ZM13.5335 12.8611V13.4663H4.61096L4.91037 12.8611H13.5335Z" fill="white"/>
<path d="M39.6446 0.151308V0.756535C39.2654 0.837232 38.8562 1.06923 38.417 1.45255C37.9978 1.83586 37.6186 2.48143 37.2793 3.38927L30.2431 21.7276C30.2031 21.7276 30.1632 21.7276 30.1233 21.7276C30.0834 21.7276 30.0434 21.7276 30.0035 21.7276C29.9636 21.7276 29.9237 21.7276 29.8838 21.7276C29.8438 21.7276 29.8039 21.7276 29.764 21.7276L22.4583 2.69326C22.1589 1.92664 21.8196 1.42228 21.4403 1.18019C21.0611 0.917927 20.7117 0.776709 20.3924 0.756535V0.151308C20.7916 0.171482 21.2806 0.191656 21.8595 0.211829C22.4583 0.232003 23.0372 0.242091 23.5961 0.242091C24.3746 0.242091 25.1031 0.232003 25.7818 0.211829C26.4605 0.191656 27.0094 0.171482 27.4286 0.151308V0.756535C26.7499 0.776709 26.2309 0.857405 25.8716 0.998625C25.5323 1.13984 25.3427 1.39202 25.3027 1.75516C25.2828 2.09812 25.4025 2.61256 25.662 3.29849L31.2311 18.2173L30.7521 18.7318L35.9618 5.05365C36.381 3.96424 36.5806 3.11692 36.5607 2.51169C36.5407 1.88629 36.3112 1.44246 35.872 1.18019C35.4329 0.917927 34.7941 0.776709 33.9558 0.756535V0.151308C34.5346 0.171482 35.1235 0.191656 35.7223 0.211829C36.3211 0.232003 36.88 0.242091 37.399 0.242091C37.918 0.242091 38.3472 0.232003 38.6865 0.211829C39.0258 0.191656 39.3452 0.171482 39.6446 0.151308Z" fill="white"/>
<path d="M58.6239 0.151308C58.544 0.857406 58.4842 1.54333 58.4442 2.20908C58.4243 2.87483 58.4143 3.37918 58.4143 3.72215C58.4143 4.08528 58.4243 4.43833 58.4442 4.78129C58.4642 5.10408 58.4842 5.37643 58.5041 5.59835H57.8155C57.6957 4.40807 57.526 3.46997 57.3065 2.78404C57.0869 2.07795 56.7076 1.58368 56.1687 1.30124C55.6497 0.998625 54.8613 0.847317 53.8033 0.847317H51.3182C50.6395 0.847317 50.1206 0.90784 49.7613 1.02889C49.4219 1.12976 49.1924 1.36176 49.0726 1.7249C48.9529 2.06786 48.893 2.61256 48.893 3.35901V18.3686C48.893 19.0949 48.9529 19.6396 49.0726 20.0028C49.1924 20.3659 49.4219 20.608 49.7613 20.729C50.1206 20.8299 50.6395 20.8803 51.3182 20.8803H53.5039C54.7615 20.8803 55.7096 20.7088 56.3484 20.3659C57.0071 20.0229 57.4761 19.4681 57.7556 18.7015C58.055 17.9147 58.2746 16.8556 58.4143 15.5241H59.103C59.0431 16.0688 59.0131 16.795 59.0131 17.7029C59.0131 18.0862 59.0231 18.641 59.0431 19.3673C59.083 20.0734 59.1429 20.8097 59.2227 21.5763C58.2047 21.536 57.057 21.5158 55.7795 21.5158C54.502 21.4956 53.3642 21.4856 52.3662 21.4856C51.927 21.4856 51.3581 21.4856 50.6595 21.4856C49.9808 21.4856 49.2423 21.4956 48.4439 21.5158C47.6454 21.5158 46.837 21.5259 46.0186 21.5461C45.2002 21.5461 44.4217 21.5562 43.6832 21.5763V20.9711C44.3619 20.9308 44.8709 20.8501 45.2102 20.729C45.5695 20.608 45.809 20.3659 45.9288 20.0028C46.0485 19.6396 46.1084 19.0949 46.1084 18.3686V3.35901C46.1084 2.61256 46.0485 2.06786 45.9288 1.7249C45.809 1.36176 45.5695 1.11967 45.2102 0.998625C44.8709 0.857405 44.3619 0.776709 43.6832 0.756535V0.151308C44.4217 0.171482 45.2002 0.191656 46.0186 0.211829C46.837 0.211829 47.6454 0.221917 48.4439 0.242091C49.2423 0.242091 49.9808 0.242091 50.6595 0.242091C51.3581 0.242091 51.927 0.242091 52.3662 0.242091C53.2844 0.242091 54.3223 0.242091 55.4801 0.242091C56.6577 0.221917 57.7057 0.191656 58.6239 0.151308ZM53.474 10.5007C53.474 10.5007 53.474 10.6016 53.474 10.8033C53.474 11.005 53.474 11.1059 53.474 11.1059H47.9947C47.9947 11.1059 47.9947 11.005 47.9947 10.8033C47.9947 10.6016 47.9947 10.5007 47.9947 10.5007H53.474ZM54.3423 6.50619C54.2624 7.65612 54.2225 8.5337 54.2225 9.13893C54.2425 9.74416 54.2525 10.2989 54.2525 10.8033C54.2525 11.3077 54.2624 11.8624 54.2824 12.4677C54.3024 13.0729 54.3523 13.9505 54.4321 15.1004H53.7435C53.6636 14.4548 53.5638 13.8294 53.444 13.2242C53.3442 12.5988 53.1047 12.0945 52.7255 11.7111C52.3662 11.3077 51.7474 11.1059 50.8691 11.1059V10.5007C51.5278 10.5007 52.0268 10.3696 52.3662 10.1073C52.7255 9.82485 52.985 9.4718 53.1446 9.04814C53.3043 8.62448 53.4141 8.19074 53.474 7.74691C53.5339 7.2829 53.5938 6.86933 53.6536 6.50619H54.3423Z" fill="white"/>
<path d="M83.7259 0.151308V0.756535C83.0473 0.776709 82.5283 0.877579 82.169 1.05915C81.8297 1.24072 81.6001 1.53324 81.4803 1.93673C81.3606 2.34021 81.3007 2.91518 81.3007 3.66162V21.7276C81.1809 21.7276 81.0611 21.7276 80.9414 21.7276C80.8416 21.7276 80.7318 21.7276 80.612 21.7276L68.0367 2.08803V18.066C68.0367 18.7923 68.0966 19.3673 68.2163 19.7909C68.3561 20.1944 68.6155 20.4869 68.9948 20.6685C69.394 20.8299 69.9829 20.9308 70.7613 20.9711V21.5763C70.402 21.536 69.933 21.5158 69.3541 21.5158C68.7752 21.4956 68.2263 21.4856 67.7073 21.4856C67.2083 21.4856 66.6993 21.4956 66.1803 21.5158C65.6813 21.5158 65.2621 21.536 64.9228 21.5763V20.9711C65.6015 20.9308 66.1105 20.8299 66.4498 20.6685C66.8091 20.4869 67.0486 20.1944 67.1684 19.7909C67.2882 19.3673 67.348 18.7923 67.348 18.066V3.35901C67.348 2.61256 67.2882 2.06786 67.1684 1.7249C67.0486 1.36176 66.8091 1.11967 66.4498 0.998625C66.1105 0.857405 65.6015 0.776709 64.9228 0.756535V0.151308C65.2621 0.171482 65.6813 0.191656 66.1803 0.211829C66.6993 0.232003 67.2083 0.242091 67.7073 0.242091C68.1465 0.242091 68.5657 0.232003 68.9649 0.211829C69.3641 0.191656 69.7234 0.171482 70.0428 0.151308L80.612 16.6135V3.66162C80.612 2.91518 80.5422 2.34021 80.4025 1.93673C80.2827 1.53324 80.0232 1.24072 79.624 1.05915C79.2447 0.877579 78.6658 0.776709 77.8874 0.756535V0.151308C78.2467 0.171482 78.7158 0.191656 79.2946 0.211829C79.8934 0.232003 80.4424 0.242091 80.9414 0.242091C81.4604 0.242091 81.9694 0.232003 82.4684 0.211829C82.9874 0.191656 83.4066 0.171482 83.7259 0.151308Z" fill="white"/>
<path d="M107.411 0.151308V0.756535C106.732 0.776709 106.213 0.877579 105.854 1.05915C105.515 1.24072 105.285 1.53324 105.166 1.93673C105.046 2.34021 104.986 2.91518 104.986 3.66162V12.7703C104.986 14.1825 104.896 15.4131 104.716 16.4622C104.537 17.5112 104.217 18.4191 103.758 19.1857C103.259 20.033 102.531 20.7189 101.573 21.2435C100.614 21.7478 99.5166 22 98.279 22C97.3209 22 96.4027 21.879 95.5244 21.6369C94.6661 21.4149 93.9076 20.9913 93.2489 20.3659C92.67 19.801 92.2109 19.2059 91.8716 18.5805C91.5522 17.9551 91.3327 17.1884 91.2129 16.2806C91.0931 15.3728 91.0332 14.2329 91.0332 12.8611V3.35901C91.0332 2.61256 90.9734 2.06786 90.8536 1.7249C90.7338 1.36176 90.4943 1.11967 90.135 0.998625C89.7957 0.857405 89.2867 0.776709 88.608 0.756535V0.151308C89.0272 0.171482 89.5761 0.191656 90.2548 0.211829C90.9334 0.232003 91.662 0.242091 92.4405 0.242091C93.1391 0.242091 93.8278 0.232003 94.5064 0.211829C95.2051 0.191656 95.7839 0.171482 96.243 0.151308V0.756535C95.5644 0.776709 95.0454 0.857405 94.6861 0.998625C94.3467 1.11967 94.1172 1.36176 93.9974 1.7249C93.8777 2.06786 93.8178 2.61256 93.8178 3.35901V13.3755C93.8178 14.4044 93.8677 15.3829 93.9675 16.3109C94.0673 17.2187 94.2669 18.0257 94.5663 18.7318C94.8857 19.4177 95.3648 19.9624 96.0035 20.3659C96.6423 20.7492 97.4906 20.9409 98.5485 20.9409C100.066 20.9409 101.233 20.608 102.052 19.9422C102.89 19.2563 103.469 18.3182 103.788 17.1279C104.128 15.9376 104.297 14.5961 104.297 13.1032V3.66162C104.297 2.91518 104.207 2.34021 104.028 1.93673C103.868 1.53324 103.589 1.24072 103.189 1.05915C102.79 0.877579 102.251 0.776709 101.573 0.756535V0.151308C101.932 0.171482 102.401 0.191656 102.98 0.211829C103.579 0.232003 104.128 0.242091 104.627 0.242091C105.146 0.242091 105.655 0.232003 106.154 0.211829C106.673 0.191656 107.092 0.171482 107.411 0.151308Z" fill="white"/>
<path d="M127.401 0.151308C127.321 0.857406 127.261 1.54333 127.222 2.20908C127.202 2.87483 127.192 3.37918 127.192 3.72215C127.192 4.08528 127.202 4.43833 127.222 4.78129C127.241 5.10408 127.261 5.37643 127.281 5.59835H126.593C126.473 4.40807 126.303 3.46997 126.084 2.78404C125.864 2.07795 125.485 1.58368 124.946 1.30124C124.427 0.998625 123.639 0.847317 122.581 0.847317H120.095C119.417 0.847317 118.898 0.90784 118.539 1.02889C118.199 1.12976 117.97 1.36176 117.85 1.7249C117.73 2.06786 117.67 2.61256 117.67 3.35901V18.3686C117.67 19.0949 117.73 19.6396 117.85 20.0028C117.97 20.3659 118.199 20.608 118.539 20.729C118.898 20.8299 119.417 20.8803 120.095 20.8803H122.281C123.539 20.8803 124.487 20.7088 125.126 20.3659C125.784 20.0229 126.253 19.4681 126.533 18.7015C126.832 17.9147 127.052 16.8556 127.192 15.5241H127.88C127.82 16.0688 127.79 16.795 127.79 17.7029C127.79 18.0862 127.8 18.641 127.82 19.3673C127.86 20.0734 127.92 20.8097 128 21.5763C126.982 21.536 125.834 21.5158 124.557 21.5158C123.279 21.4956 122.141 21.4856 121.143 21.4856C120.704 21.4856 120.135 21.4856 119.437 21.4856C118.758 21.4856 118.02 21.4956 117.221 21.5158C116.423 21.5158 115.614 21.5259 114.796 21.5461C113.977 21.5461 113.199 21.5562 112.46 21.5763V20.9711C113.139 20.9308 113.648 20.8501 113.987 20.729C114.347 20.608 114.586 20.3659 114.706 20.0028C114.826 19.6396 114.886 19.0949 114.886 18.3686V3.35901C114.886 2.61256 114.826 2.06786 114.706 1.7249C114.586 1.36176 114.347 1.11967 113.987 0.998625C113.648 0.857405 113.139 0.776709 112.46 0.756535V0.151308C113.199 0.171482 113.977 0.191656 114.796 0.211829C115.614 0.211829 116.423 0.221917 117.221 0.242091C118.02 0.242091 118.758 0.242091 119.437 0.242091C120.135 0.242091 120.704 0.242091 121.143 0.242091C122.062 0.242091 123.1 0.242091 124.257 0.242091C125.435 0.221917 126.483 0.191656 127.401 0.151308ZM122.251 10.5007C122.251 10.5007 122.251 10.6016 122.251 10.8033C122.251 11.005 122.251 11.1059 122.251 11.1059H116.772C116.772 11.1059 116.772 11.005 116.772 10.8033C116.772 10.6016 116.772 10.5007 116.772 10.5007H122.251ZM123.12 6.50619C123.04 7.65612 123 8.5337 123 9.13893C123.02 9.74416 123.03 10.2989 123.03 10.8033C123.03 11.3077 123.04 11.8624 123.06 12.4677C123.08 13.0729 123.13 13.9505 123.209 15.1004H122.521C122.441 14.4548 122.341 13.8294 122.221 13.2242C122.122 12.5988 121.882 12.0945 121.503 11.7111C121.143 11.3077 120.525 11.1059 119.646 11.1059V10.5007C120.305 10.5007 120.804 10.3696 121.143 10.1073C121.503 9.82485 121.762 9.4718 121.922 9.04814C122.082 8.62448 122.191 8.19074 122.251 7.74691C122.311 7.2829 122.371 6.86933 122.431 6.50619H123.12Z" fill="white"/>
</svg>
