<svg width="259" height="60" viewBox="0 0 259 60" fill="none" xmlns="http://www.w3.org/2000/svg">
<rect x="1" y="1" width="257" height="58" stroke="white" stroke-width="2"/>
<path d="M34.7188 30.7256H36.5029C38.3311 30.7256 39.4209 31.5869 39.4209 33.0371C39.4209 34.4346 38.2607 35.3926 36.5645 35.3926C34.8242 35.3926 33.6113 34.5312 33.4707 33.1953H31.9414C32.0557 35.3574 33.9102 36.7988 36.582 36.7988C39.0869 36.7988 41.0469 35.1729 41.0469 33.0811C41.0469 31.3584 40.0098 30.1455 38.3223 29.9258V29.8555C39.7197 29.5127 40.6777 28.3174 40.6777 26.9111C40.6777 24.9336 38.9814 23.5186 36.6084 23.5186C34.0859 23.5186 32.4424 24.8721 32.2842 27.0693H33.8223C33.9541 25.7334 34.9736 24.9248 36.5469 24.9248C38.1025 24.9248 39.0693 25.7422 39.0693 27.0518C39.0693 28.3789 37.9795 29.3193 36.4326 29.3193H34.7188V30.7256ZM45.459 36.6582C46.6895 36.6582 47.8496 35.9727 48.3945 34.9268H48.4297V36.5H49.8799V30.1807C49.8799 28.3613 48.5264 27.2012 46.3818 27.2012C44.2197 27.2012 42.8662 28.4141 42.7607 29.9961H44.2373C44.4307 29.0996 45.1689 28.5459 46.3467 28.5459C47.6123 28.5459 48.3506 29.2139 48.3506 30.3301V31.0947L45.7314 31.2441C43.6221 31.3672 42.418 32.3516 42.418 33.916C42.418 35.5596 43.6396 36.6582 45.459 36.6582ZM45.8018 35.3574C44.7031 35.3574 43.9736 34.7861 43.9736 33.916C43.9736 33.0547 44.6768 32.5098 45.9072 32.4307L48.3506 32.2812V33.0283C48.3506 34.3467 47.2432 35.3574 45.8018 35.3574ZM57.9043 36.5H59.4424V27.3594H51.9893V36.5H53.5186V28.6162H57.9043V36.5ZM63.0986 36.5L67.6514 29.7061H67.7217V36.5H69.251V27.3594H67.7393L63.1865 34.1533H63.1162V27.3594H61.5869V36.5H63.0986ZM78.998 30.3564C78.8047 28.7129 77.4424 27.2012 75.1572 27.2012C72.6348 27.2012 70.9561 29.0469 70.9561 31.9297C70.9561 34.874 72.6436 36.6582 75.1748 36.6582C77.249 36.6582 78.7783 35.375 79.0156 33.5557H77.5127C77.249 34.6543 76.4316 35.3135 75.1836 35.3135C73.6016 35.3135 72.5117 34.0566 72.5117 31.9297C72.5117 29.8555 73.584 28.5459 75.166 28.5459C76.5107 28.5459 77.2842 29.3633 77.5039 30.3564H78.998ZM83.2695 36.6582C84.5 36.6582 85.6602 35.9727 86.2051 34.9268H86.2402V36.5H87.6904V30.1807C87.6904 28.3613 86.3369 27.2012 84.1924 27.2012C82.0303 27.2012 80.6768 28.4141 80.5713 29.9961H82.0479C82.2412 29.0996 82.9795 28.5459 84.1572 28.5459C85.4229 28.5459 86.1611 29.2139 86.1611 30.3301V31.0947L83.542 31.2441C81.4326 31.3672 80.2285 32.3516 80.2285 33.916C80.2285 35.5596 81.4502 36.6582 83.2695 36.6582ZM83.6123 35.3574C82.5137 35.3574 81.7842 34.7861 81.7842 33.916C81.7842 33.0547 82.4873 32.5098 83.7178 32.4307L86.1611 32.2812V33.0283C86.1611 34.3467 85.0537 35.3574 83.6123 35.3574ZM96.3125 27.3594H88.8945V28.6162H91.8389V36.5H93.3682V28.6162H96.3125V27.3594ZM97.7275 36.5H100.971C103.062 36.5 104.407 35.2959 104.407 33.3887C104.407 31.4814 103.062 30.2773 100.971 30.2773H99.2568V27.3594H97.7275V36.5ZM100.944 31.5342C102.122 31.5342 102.896 32.2637 102.896 33.3887C102.896 34.5049 102.131 35.2432 100.944 35.2432H99.2568V31.5342H100.944ZM113.68 30.3564C113.486 28.7129 112.124 27.2012 109.839 27.2012C107.316 27.2012 105.638 29.0469 105.638 31.9297C105.638 34.874 107.325 36.6582 109.856 36.6582C111.931 36.6582 113.46 35.375 113.697 33.5557H112.194C111.931 34.6543 111.113 35.3135 109.865 35.3135C108.283 35.3135 107.193 34.0566 107.193 31.9297C107.193 29.8555 108.266 28.5459 109.848 28.5459C111.192 28.5459 111.966 29.3633 112.186 30.3564H113.68ZM120.289 36.5H121.818V27.3594H118.549C116.448 27.3594 115.095 28.5107 115.095 30.3916C115.095 31.6484 115.877 32.5977 117.169 32.9668L114.62 36.5H116.387L118.707 33.248H120.289V36.5ZM118.558 31.9912C117.38 31.9912 116.615 31.3145 116.615 30.3652C116.615 29.2666 117.371 28.6162 118.558 28.6162H120.289V31.9912H118.558ZM133.666 36.5H135.195V27.3594H133.666V31.1299H129.192V27.3594H127.663V36.5H129.192V32.3867H133.666V36.5ZM140.029 36.6582C141.26 36.6582 142.42 35.9727 142.965 34.9268H143V36.5H144.45V30.1807C144.45 28.3613 143.097 27.2012 140.952 27.2012C138.79 27.2012 137.437 28.4141 137.331 29.9961H138.808C139.001 29.0996 139.739 28.5459 140.917 28.5459C142.183 28.5459 142.921 29.2139 142.921 30.3301V31.0947L140.302 31.2441C138.192 31.3672 136.988 32.3516 136.988 33.916C136.988 35.5596 138.21 36.6582 140.029 36.6582ZM140.372 35.3574C139.273 35.3574 138.544 34.7861 138.544 33.916C138.544 33.0547 139.247 32.5098 140.478 32.4307L142.921 32.2812V33.0283C142.921 34.3467 141.813 35.3574 140.372 35.3574ZM156.166 36.5H157.704V27.3594H150.251V36.5H151.78V28.6162H156.166V36.5ZM164.296 27.2012C162.969 27.2012 161.905 27.8779 161.343 28.9062H161.308V27.3594H159.857V39.5498H161.387V35.0146H161.422C161.967 36.0166 163.021 36.6582 164.331 36.6582C166.634 36.6582 168.207 34.7949 168.207 31.9297C168.207 29.0645 166.625 27.2012 164.296 27.2012ZM163.997 35.3135C162.433 35.3135 161.378 33.9688 161.378 31.9297C161.378 29.8994 162.433 28.5459 163.997 28.5459C165.623 28.5459 166.643 29.8643 166.643 31.9297C166.643 34.0039 165.623 35.3135 163.997 35.3135ZM173.718 36.6582C176.24 36.6582 177.945 34.8389 177.945 31.9297C177.945 29.0117 176.24 27.2012 173.718 27.2012C171.187 27.2012 169.481 29.0117 169.481 31.9297C169.481 34.8389 171.187 36.6582 173.718 36.6582ZM173.718 35.3135C172.101 35.3135 171.037 34.083 171.037 31.9297C171.037 29.7764 172.101 28.5459 173.718 28.5459C175.335 28.5459 176.39 29.7764 176.39 31.9297C176.39 34.083 175.335 35.3135 173.718 35.3135ZM187.262 30.3564C187.068 28.7129 185.706 27.2012 183.421 27.2012C180.898 27.2012 179.22 29.0469 179.22 31.9297C179.22 34.874 180.907 36.6582 183.438 36.6582C185.513 36.6582 187.042 35.375 187.279 33.5557H185.776C185.513 34.6543 184.695 35.3135 183.447 35.3135C181.865 35.3135 180.775 34.0566 180.775 31.9297C180.775 29.8555 181.848 28.5459 183.43 28.5459C184.774 28.5459 185.548 29.3633 185.768 30.3564H187.262ZM190.364 36.5V30.0137H190.426L193.379 36.2363H194.548L197.501 30.0137H197.562V36.5H199.083V27.3594H197.299L194.029 34.4785H193.959L190.707 27.3594H188.853V36.5H190.364ZM205.024 36.6582C207.547 36.6582 209.252 34.8389 209.252 31.9297C209.252 29.0117 207.547 27.2012 205.024 27.2012C202.493 27.2012 200.788 29.0117 200.788 31.9297C200.788 34.8389 202.493 36.6582 205.024 36.6582ZM205.024 35.3135C203.407 35.3135 202.344 34.083 202.344 31.9297C202.344 29.7764 203.407 28.5459 205.024 28.5459C206.642 28.5459 207.696 29.7764 207.696 31.9297C207.696 34.083 206.642 35.3135 205.024 35.3135ZM217.303 27.3594H209.885V28.6162H212.829V36.5H214.358V28.6162H217.303V27.3594ZM223.165 27.2012C221.838 27.2012 220.774 27.8779 220.212 28.9062H220.177V27.3594H218.727V39.5498H220.256V35.0146H220.291C220.836 36.0166 221.891 36.6582 223.2 36.6582C225.503 36.6582 227.076 34.7949 227.076 31.9297C227.076 29.0645 225.494 27.2012 223.165 27.2012ZM222.866 35.3135C221.302 35.3135 220.247 33.9688 220.247 31.9297C220.247 29.8994 221.302 28.5459 222.866 28.5459C224.492 28.5459 225.512 29.8643 225.512 31.9297C225.512 34.0039 224.492 35.3135 222.866 35.3135Z" fill="white"/>
</svg>
